<svg width="32" height="32" viewBox="0 0 32 32" fill="none" xmlns="http://www.w3.org/2000/svg">
<path d="M22.0032 9.52351H21.376V8.32031H19.9808V9.52351H12.2432V8.32031H10.848V9.52351H10.2208C9.1712 9.52351 8.32 10.3747 8.32 11.4243V22.0099C8.32 23.0595 9.1712 23.9107 10.2208 23.9107H22.0096C23.0592 23.9107 23.9104 23.0595 23.9104 22.0099V11.4243C23.904 10.3747 23.0528 9.52351 22.0032 9.52351ZM22.5088 22.0035C22.5088 22.2851 22.2848 22.5091 22.0032 22.5091H10.2208C9.9392 22.5091 9.7152 22.2851 9.7152 22.0035V14.1635H22.5088V22.0035ZM22.5088 12.7683H9.7152V11.4243C9.7152 11.1427 9.9392 10.9187 10.2208 10.9187H10.848V12.1219H12.2432V10.9187H19.9872V12.1219H21.3824V10.9187H22.0096C22.2912 10.9187 22.5152 11.1427 22.5152 11.4243V12.7683H22.5088Z" fill="#428FBC"/>
<path d="M11.904 15.335H10.7008V16.5382H11.904V15.335Z" fill="#231F20"/>
<path d="M14.3104 15.335H13.1072V16.5382H14.3104V15.335Z" fill="#231F20"/>
<path d="M16.7168 15.335H15.5136V16.5382H16.7168V15.335Z" fill="#231F20"/>
<path d="M19.1232 15.335H17.92V16.5382H19.1232V15.335Z" fill="#231F20"/>
<path d="M21.5232 15.335H20.32V16.5382H21.5232V15.335Z" fill="#231F20"/>
<path d="M11.904 17.7344H10.7008V18.9376H11.904V17.7344Z" fill="#231F20"/>
<path d="M14.3104 17.7344H13.1072V18.9376H14.3104V17.7344Z" fill="#231F20"/>
<path d="M16.7168 17.7344H15.5136V18.9376H16.7168V17.7344Z" fill="#231F20"/>
<path d="M19.1232 17.7344H17.92V18.9376H19.1232V17.7344Z" fill="#231F20"/>
<path d="M11.904 20.1406H10.7008V21.3438H11.904V20.1406Z" fill="#231F20"/>
<path d="M14.3104 20.1406H13.1072V21.3438H14.3104V20.1406Z" fill="#231F20"/>
<path d="M16.7168 20.1406H15.5136V21.3438H16.7168V20.1406Z" fill="#231F20"/>
<path d="M19.1232 20.1406H17.92V21.3438H19.1232V20.1406Z" fill="#231F20"/>
<path d="M21.5232 17.7344H20.32V18.9376H21.5232V17.7344Z" fill="#231F20"/>
</svg>
