<svg width="152" height="265" viewBox="0 0 152 265" fill="none" xmlns="http://www.w3.org/2000/svg">
<path d="M5.06028 142.15C2.52689 145.032 2.9565 149.587 6.01533 152.276C9.0934 154.982 13.6464 154.808 16.1798 151.927C18.7291 149.028 18.2836 144.491 15.2248 141.802C12.1819 139.094 7.60961 139.251 5.06028 142.15Z" fill="#A7A1C2"/>
<path d="M44.9254 96.8096C42.3761 99.7091 42.8216 104.246 45.8804 106.935C48.9585 109.641 53.5115 109.468 56.0449 106.586C58.5943 103.687 58.1487 99.1501 55.0899 96.4607C52.031 93.7713 47.4588 93.9283 44.9254 96.8096Z" fill="#A7A1C2"/>
<path d="M84.7746 51.4864C82.2253 54.3859 82.6709 58.9225 85.7297 61.6119C88.8078 64.3183 93.3608 64.1444 95.8942 61.263C98.4435 58.3635 97.998 53.8269 94.9391 51.1375C91.8803 48.4481 87.324 48.5869 84.7746 51.4864Z" fill="#A7A1C2"/>
<path d="M135.763 15.9573C138.312 13.0578 137.867 8.52118 134.808 5.83178C131.73 3.12547 127.177 3.29935 124.643 6.18073C122.094 9.08024 122.539 13.6168 125.598 16.3062C128.657 18.9956 133.213 18.8568 135.763 15.9573Z" fill="#A7A1C2"/>
<path d="M45.8061 177.976C43.2568 180.875 43.7023 185.412 46.7612 188.101C49.8393 190.808 54.3923 190.634 56.9257 187.752C59.475 184.853 59.0294 180.316 55.9706 177.627C52.9085 174.902 48.3555 175.076 45.8061 177.976Z" fill="#A7A1C2"/>
<path d="M85.6712 132.634C83.1219 135.533 83.5675 140.07 86.6263 142.759C89.7044 145.466 94.2574 145.292 96.7908 142.41C99.3401 139.511 98.8946 134.974 95.8357 132.285C92.7577 129.579 88.2046 129.752 85.6712 132.634Z" fill="#A7A1C2"/>
<path d="M125.52 87.3116C122.971 90.2111 123.417 94.7477 126.476 97.4371C129.554 100.143 134.107 99.9696 136.64 97.0882C139.189 94.1887 138.744 89.6521 135.685 86.9627C132.607 84.2563 128.07 84.4121 125.52 87.3116Z" fill="#A7A1C2"/>
<path d="M86.5327 213.783C83.9834 216.683 84.4289 221.219 87.4877 223.909C90.5657 226.615 95.1187 226.441 97.6521 223.56C100.201 220.66 99.7559 216.124 96.6971 213.434C93.6543 210.727 89.082 210.884 86.5327 213.783Z" fill="#A7A1C2"/>
<path d="M126.398 168.442C123.849 171.342 124.294 175.879 127.353 178.568C130.431 181.274 134.984 181.1 137.517 178.219C140.067 175.319 139.621 170.783 136.562 168.093C133.504 165.404 128.931 165.561 126.398 168.442Z" fill="#A7A1C2"/>
<path d="M127.279 249.608C124.729 252.508 125.175 257.045 128.234 259.734C131.312 262.44 135.865 262.266 138.398 259.385C140.947 256.486 140.502 251.949 137.443 249.26C134.381 246.535 129.828 246.709 127.279 249.608Z" fill="#A7A1C2"/>
</svg>
