<svg width="20" height="20" viewBox="0 0 20 20" fill="none" xmlns="http://www.w3.org/2000/svg">
<path d="M14.7568 3.60001H5.24321C4.33684 3.60001 3.60001 4.27163 3.60001 5.24321V14.7568C3.60001 15.7284 4.33684 16.4 5.24321 16.4H14.7568C15.6632 16.4 16.4 15.7284 16.4 14.7568V5.24321C16.4 4.27163 15.6632 3.60001 14.7568 3.60001ZM12.3507 5.60184C12.3507 5.28233 12.6115 5.02802 12.9245 5.02802H14.3721C14.6916 5.02802 14.9459 5.28885 14.9459 5.60184V6.98421C14.9459 7.30372 14.6851 7.55803 14.3721 7.55803H12.9245C12.605 7.55803 12.3507 7.2972 12.3507 6.98421V5.60184ZM10.0163 7.4863C11.4378 7.4863 12.5854 8.60133 12.5854 9.97718C12.5854 11.353 11.4313 12.4681 10.0163 12.4681C8.59481 12.4681 7.44717 11.353 7.44717 9.97718C7.44717 8.60133 8.59481 7.4863 10.0163 7.4863ZM14.9524 14.4243C14.9524 14.7046 14.7242 14.9329 14.4438 14.9329H5.53011C5.24972 14.9329 5.0215 14.7046 5.0215 14.4243V9.01213H6.19521C6.09088 9.35772 6.0322 9.7294 6.0322 10.1076C6.0322 12.2398 7.81233 13.9613 10.0098 13.9613C12.2072 13.9613 13.9874 12.2333 13.9874 10.1076C13.9874 9.7294 13.9287 9.35772 13.8244 9.01213H14.9524V14.4243Z" fill="#428FBC"/>
</svg>
