<svg width="20" height="20" viewBox="0 0 20 20" fill="none" xmlns="http://www.w3.org/2000/svg">
<path d="M16.2816 16.288L16.288 11.6362C16.288 9.3585 15.799 7.60843 13.1353 7.60843C11.8549 7.60843 10.9992 8.30974 10.6453 8.97889H10.6067V7.81432H8.08455V16.2816H10.7097V12.093C10.7097 10.9863 10.922 9.91826 12.286 9.91826C13.6307 9.91826 13.6565 11.1793 13.6565 12.1638V16.288H16.2816Z" fill="#428FBC"/>
<path d="M6.44387 7.81433H3.81233V16.2816H6.44387V7.81433Z" fill="#428FBC"/>
<path d="M5.12488 3.60001C4.28202 3.60001 3.60001 4.28202 3.60001 5.12488C3.60001 5.96775 4.28202 6.66263 5.12488 6.66263C5.96774 6.66263 6.64975 5.96775 6.64975 5.12488C6.64975 4.28202 5.96774 3.60001 5.12488 3.60001Z" fill="#428FBC"/>
</svg>
