<svg width="32" height="32" viewBox="0 0 32 32" fill="none" xmlns="http://www.w3.org/2000/svg">
<path d="M15.7483 25.6574C15.3514 25.6574 14.9732 25.49 14.7066 25.1923C14.0493 24.4607 8.32 17.9439 8.32 13.188C8.32 9.08947 11.6497 5.75977 15.7483 5.75977C19.8468 5.75977 23.1765 9.08947 23.1765 13.188C23.1765 17.9439 17.4472 24.4607 16.79 25.1923C16.5233 25.4837 16.1451 25.6574 15.7483 25.6574ZM15.7483 7.37191C12.5426 7.37191 9.93215 9.98235 9.93215 13.188C9.93215 16.4867 13.6463 21.5588 15.7483 23.9398C17.8503 21.5588 21.5644 16.4867 21.5644 13.188C21.5644 9.98235 18.954 7.37191 15.7483 7.37191ZM15.7483 17.3238C13.4665 17.3238 11.6125 15.4698 11.6125 13.188C11.6125 10.9062 13.4665 9.05226 15.7483 9.05226C18.0301 9.05226 19.884 10.9062 19.884 13.188C19.884 15.4698 18.0301 17.3238 15.7483 17.3238ZM15.7483 10.6644C14.3531 10.6644 13.2246 11.7991 13.2246 13.188C13.2246 14.577 14.3593 15.7117 15.7483 15.7117C17.1372 15.7117 18.2719 14.577 18.2719 13.188C18.2719 11.7991 17.1434 10.6644 15.7483 10.6644Z" fill="#428FBC"/>
</svg>
