<svg width="89" height="39" viewBox="0 0 89 39" fill="none" xmlns="http://www.w3.org/2000/svg">
<path fill-rule="evenodd" clip-rule="evenodd" d="M79.9529 7.18698C72.3575 13.1898 60.7634 -0.247069 54.6211 2.12112C52.292 3.01691 51.7251 6.21911 52.1477 10.348H56.3112C56.3731 8.73145 56.6823 7.50617 57.3521 6.93987C61.4642 3.45966 74.9855 15.455 79.9529 7.18698Z" fill="#231F20"/>
<path fill-rule="evenodd" clip-rule="evenodd" d="M65.1331 22.333C72.2957 22.0139 72.4193 29.7465 74.6969 35.2345C76.7787 40.2592 79.149 39.3634 81.1175 36.8202C84.1783 32.856 88.2491 19.1926 88.7232 10.3377C89.0839 3.58317 88.3007 1.62684 81.2102 2.47115C74.6866 3.24339 68.4825 5.99255 63.6387 0C65.4526 6.85745 72.7388 6.44559 78.304 5.63217C89.2282 4.03622 85.2089 21.6638 81.5812 29.8701C80.0972 33.2164 77.8196 36.8408 75.6657 31.1365C73.6869 25.9368 72.3369 20.9224 65.1331 22.333Z" fill="#428FBC"/>
<path fill-rule="evenodd" clip-rule="evenodd" d="M63.7005 21.9006L66.4625 17.4216H67.39L64.154 22.6728V26.812H62.2989V23.0538L59.774 19.2647C59.6503 19.0794 59.5164 18.9043 59.3618 18.719C59.2072 18.5337 59.0526 18.3792 58.8877 18.2248C58.7228 18.0806 58.5579 17.957 58.3827 17.8644C58.2075 17.7717 58.0426 17.7099 57.888 17.6893V17.401H59.4442C59.7122 17.401 59.9595 17.4525 60.1965 17.5452C60.4336 17.6379 60.6397 17.7614 60.8355 17.9159C61.0313 18.0703 61.2065 18.2351 61.3611 18.4204C61.5157 18.6057 61.6497 18.7911 61.763 18.9661L63.7005 21.9006ZM56.5586 23.9599V17.4113H57.2697V26.8532H56.6101L50.5709 19.7692V26.812H49.8598V19.1205C49.8598 18.9352 49.8392 18.7705 49.7979 18.616C49.7567 18.4616 49.6949 18.3277 49.5918 18.2145C49.4888 18.1012 49.3548 18.0085 49.1899 17.9468C49.025 17.885 48.8189 17.8438 48.5715 17.8438H48.4994V17.4216H49.4991C50.0453 17.4216 50.4781 17.4937 50.8182 17.6379C51.1583 17.782 51.4366 17.9982 51.653 18.2762L56.5586 23.9599ZM41.5532 23.5789H44.7893L43.2125 19.8619L41.5532 23.5789ZM47.3967 25.0101C47.5719 25.4323 47.778 25.7618 48.0253 26.0089C48.2727 26.256 48.5612 26.4002 48.8807 26.431V26.7914C48.8086 26.812 48.6952 26.8223 48.5612 26.8429C48.4273 26.8532 48.3036 26.8635 48.2005 26.8635C47.9738 26.8635 47.7265 26.8429 47.4688 26.8017C47.2112 26.7605 46.9535 26.6782 46.6959 26.5443C46.4485 26.4207 46.2115 26.2354 45.9848 25.9883C45.758 25.7412 45.5622 25.422 45.3973 25.0101L45.0675 24.2173H41.2544L40.0795 26.812H39.3684L43.5732 17.4216H44.2122L47.3967 25.0101ZM36.0705 17.4113C36.2766 17.4113 36.524 17.4216 36.8022 17.4422C37.0805 17.4628 37.3588 17.504 37.6473 17.5761C37.9359 17.6482 38.2141 17.7408 38.4821 17.8644C38.75 17.9879 38.9974 18.1527 39.2138 18.3689C39.4302 18.5851 39.6054 18.8425 39.7291 19.1514C39.8528 19.4603 39.9249 19.831 39.9249 20.2738C39.9249 20.6856 39.8631 21.0357 39.7291 21.324C39.6054 21.6226 39.4302 21.8697 39.2241 22.0756C39.018 22.2816 38.781 22.4463 38.5233 22.5699C38.2657 22.6934 38.008 22.7861 37.7607 22.8582C37.5133 22.9199 37.2763 22.9714 37.0496 22.9817C36.8228 23.0023 36.6477 23.0126 36.5034 23.0126H35.143V26.812H33.2879V19.2647C33.2879 18.8425 33.2261 18.4925 33.1127 18.2351C32.9891 17.9776 32.7211 17.8438 32.2986 17.8438H32.1543V17.4216H36.0705V17.4113ZM36.0705 17.9776C35.9572 17.9776 35.8438 17.9776 35.7304 17.9879C35.6171 17.9982 35.514 18.0085 35.4316 18.0291C35.3285 18.0497 35.2357 18.06 35.143 18.0703V22.4257H35.9984C36.2354 22.4257 36.4725 22.3948 36.6992 22.3228C36.9362 22.261 37.1423 22.1374 37.3175 21.9624C37.503 21.7873 37.6473 21.5608 37.7504 21.2725C37.8637 20.9842 37.9153 20.6238 37.9153 20.1811C37.9153 19.7486 37.8637 19.3883 37.7504 19.1C37.637 18.8117 37.503 18.5851 37.3278 18.4204C37.1526 18.2453 36.9568 18.1321 36.7404 18.06C36.524 18.0188 36.2973 17.9776 36.0705 17.9776ZM30.6187 24.382C30.6187 25.2469 30.6909 25.8956 30.8351 26.3281C30.9794 26.7605 31.2577 27.0179 31.6493 27.09V27.4504C30.6187 27.4504 29.8767 27.2136 29.4232 26.7193C28.9801 26.2354 28.7534 25.4529 28.7534 24.382V19.3471L25.6307 26.8017H25.1566L21.3434 19.0588V26.8017H20.6323V17.4113H22.374L25.8265 24.4026L28.7431 17.4113H30.6084V24.382H30.6187ZM9.67721 22.1065C9.67721 21.4064 9.79057 20.7474 10.007 20.1399C10.2337 19.5324 10.5532 19.0073 10.9654 18.5645C11.3777 18.1218 11.8724 17.7717 12.4495 17.5143C13.0266 17.2569 13.6656 17.1333 14.3767 17.1333C15.0878 17.1333 15.7371 17.2569 16.3039 17.5143C16.881 17.7717 17.3654 18.1218 17.7776 18.5645C18.1898 19.0073 18.499 19.5324 18.7258 20.1399C18.9525 20.7474 19.0555 21.4064 19.0555 22.1065C19.0555 22.8067 18.9422 23.4657 18.7258 24.0732C18.499 24.6806 18.1898 25.2058 17.7776 25.6485C17.3654 26.0913 16.881 26.4413 16.3039 26.6987C15.7267 26.9562 15.0878 27.0797 14.3767 27.0797C13.6656 27.0797 13.0163 26.9562 12.4495 26.6987C11.8724 26.4413 11.3777 26.0913 10.9654 25.6485C10.5532 25.2058 10.2337 24.6806 10.007 24.0732C9.79057 23.4657 9.67721 22.8067 9.67721 22.1065ZM17.0974 22.1065C17.0974 20.7165 16.8604 19.656 16.3863 18.894C15.9123 18.1424 15.2424 17.7614 14.3767 17.7614C13.511 17.7614 12.8411 18.1424 12.3773 18.894C11.9033 19.6457 11.6765 20.7165 11.6765 22.1065C11.6765 23.4965 11.9136 24.5571 12.3773 25.319C12.8514 26.0707 13.511 26.4516 14.3767 26.4516C15.2424 26.4516 15.9123 26.0707 16.3863 25.319C16.8604 24.5674 17.0974 23.4965 17.0974 22.1065ZM8.01796 20.4488C7.83246 19.5839 7.50267 18.9249 7.0286 18.4616C6.54422 17.9982 5.91557 17.7717 5.12201 17.7717C4.68917 17.7717 4.27693 17.8438 3.89562 17.9879C3.5143 18.1321 3.18451 18.3792 2.89595 18.719C2.60738 19.0691 2.39096 19.5221 2.22607 20.0987C2.06117 20.6753 1.98903 21.3961 1.98903 22.2507C1.98903 22.7964 2.05087 23.3112 2.16423 23.826C2.2776 24.3306 2.4631 24.7836 2.71044 25.1749C2.95778 25.5661 3.28757 25.875 3.67919 26.1119C4.07082 26.3487 4.55519 26.4619 5.12201 26.4619C5.78159 26.4619 6.38964 26.2869 6.94615 25.9471C7.50267 25.597 7.95613 25.0925 8.29622 24.4335L8.7909 24.8145C8.34775 25.597 7.80154 26.1839 7.15227 26.5546C6.503 26.9253 5.68884 27.1106 4.68917 27.1106C3.93684 27.1106 3.26696 26.9871 2.68983 26.7399C2.1024 26.4928 1.61802 26.153 1.21609 25.7103C0.814163 25.2778 0.515293 24.763 0.309176 24.1761C0.103059 23.5892 0 22.9508 0 22.2713C0 21.5505 0.12367 20.8812 0.360705 20.2532C0.59774 19.6354 0.927528 19.0897 1.33976 18.6263C1.7623 18.163 2.25698 17.8026 2.82381 17.5349C3.40093 17.2672 4.01929 17.1333 4.69947 17.1333C5.59608 17.1333 6.30719 17.2466 6.8534 17.4834C7.39961 17.7202 7.80154 17.9879 8.06949 18.2865C8.255 18.5337 8.36836 18.8528 8.39928 19.2441C8.4302 19.6354 8.4405 20.0369 8.4405 20.4591H8.01796V20.4488Z" fill="#428FBC"/>
<path fill-rule="evenodd" clip-rule="evenodd" d="M59.403 29.6024C59.774 32.125 62.67 38.0764 64.5456 33.0826C65.4938 30.5497 67.0294 25.8957 70.6982 26.6988C65.3392 26.3281 66.5965 40.7741 61.897 38.8177C60.042 38.0455 58.0839 35.1625 56.1464 29.6024H59.403Z" fill="#231F20"/>
<path fill-rule="evenodd" clip-rule="evenodd" d="M81.6534 8.1445C87.7854 8.85496 81.7049 30.9615 78.5307 31.8882C76.655 32.4339 76.1088 25.8235 74.2228 24.9072C76.2119 24.8042 76.7684 25.8132 78.2009 25.9574C81.8801 26.3281 84.5184 10.4303 81.6534 8.1445Z" fill="#428FBC"/>
</svg>
