<svg width="32" height="32" viewBox="0 0 32 32" fill="none" xmlns="http://www.w3.org/2000/svg">
<path d="M23.6807 8.95996H8.3193C7.26086 8.95996 6.4 9.80647 6.4 10.8473V20.5127C6.4 21.5535 7.26086 22.4 8.3193 22.4H23.6807C24.7391 22.4 25.6 21.5535 25.6 20.5127V10.8473C25.6 9.80647 24.7391 8.95996 23.6807 8.95996ZM23.9488 11.7354V19.6245L19.9127 15.6834L23.9488 11.7354ZM13.2657 16.8352L13.8725 17.425C14.4441 17.987 15.1991 18.2923 16.0035 18.2923C16.8079 18.2923 17.563 17.987 18.1345 17.425L18.7413 16.8352L22.7775 20.7763H9.23661L13.2657 16.8352ZM15.0439 16.2663L9.23661 10.5905H22.7705L16.9632 16.2732C16.4481 16.7728 15.5519 16.7728 15.0439 16.2663ZM12.0944 15.6834L8.05822 19.6245V11.7354L12.0944 15.6834Z" fill="#428FBC"/>
</svg>
