<svg width="32" height="32" viewBox="0 0 32 32" fill="none" xmlns="http://www.w3.org/2000/svg">
<path d="M19.2294 25.0981C19.0485 25.0981 18.8676 25.0689 18.6868 25.0106C15.3901 23.9603 12.6944 21.6848 11.1015 18.5981C9.51444 15.5174 9.21686 12.0048 10.2671 8.70813C10.5647 7.76873 11.58 7.24359 12.5252 7.547L14.8533 8.28803C15.7927 8.5856 16.312 9.61253 16.0144 10.5694C15.7985 11.2638 15.6877 11.9815 15.6935 12.6933C15.6877 13.3585 15.3376 13.9595 14.7716 14.2745C14.474 14.5079 14.3807 14.9105 14.5499 15.249L15.7635 17.7171C15.9386 18.073 16.3587 18.2422 16.7321 18.1139L16.7846 18.0963C17.3273 17.8396 18.0683 17.9155 18.5759 18.2947C19.1594 18.7207 19.8187 19.0474 20.5306 19.275C20.974 19.415 21.3416 19.7243 21.5575 20.1444C21.7792 20.5703 21.8201 21.0721 21.6742 21.5272L20.9332 23.8495C20.6998 24.608 19.9879 25.0981 19.2294 25.0981ZM11.9767 8.91819C11.8367 8.91819 11.7025 9.00571 11.6558 9.15158C10.7222 12.0807 10.9848 15.1964 12.3968 17.933C13.8089 20.6695 16.2011 22.6883 19.1302 23.6219C19.3053 23.6803 19.4978 23.5811 19.5503 23.4002L20.2913 21.0779C20.3205 20.9904 20.3088 20.8912 20.268 20.8095C20.2388 20.757 20.1921 20.6928 20.0988 20.6637C19.2352 20.3894 18.4359 19.9927 17.7182 19.4675C17.6248 19.3975 17.4673 19.3917 17.4148 19.415L17.2222 19.4909C16.1486 19.8701 14.9642 19.38 14.4565 18.3647L13.2429 15.8966C12.7528 14.8989 13.0503 13.7086 13.9606 13.0667L14.0481 13.0142C14.1648 12.9559 14.2348 12.8392 14.2348 12.6991C14.2231 11.8414 14.3573 10.972 14.6199 10.1318C14.6841 9.93344 14.5907 9.73506 14.4098 9.67671L12.0818 8.93569C12.0467 8.92402 12.0117 8.91819 11.9767 8.91819Z" fill="#428FBC"/>
</svg>
