<svg width="20" height="20" viewBox="0 0 20 20" fill="none" xmlns="http://www.w3.org/2000/svg">
<path d="M16.043 6.6942L16.0507 7.09645C16.0507 11.2272 12.9136 16 7.1789 16C5.4215 16 3.77971 15.4817 2.39999 14.5844C2.63894 14.6154 2.88559 14.6308 3.13995 14.6308C4.60446 14.6308 5.94563 14.128 7.00933 13.2848C5.64502 13.2616 4.49654 12.3566 4.09573 11.1112C4.28843 11.1498 4.48113 11.1653 4.68154 11.1653C4.96673 11.1653 5.24421 11.1266 5.49857 11.057C4.07261 10.7708 3.00121 9.50992 3.00121 7.99377V7.96283C3.41744 8.19489 3.89533 8.33413 4.41176 8.3496C3.5793 7.79264 3.03204 6.82571 3.03204 5.75047C3.03204 5.17805 3.1862 4.63656 3.45598 4.17243C4.98214 6.06763 7.28681 7.30531 9.87667 7.43681C9.82271 7.21248 9.79959 6.97268 9.79959 6.72515C9.79959 5.00013 11.187 3.60001 12.9136 3.60001C13.8077 3.60001 14.6247 3.97905 15.1951 4.58241C15.8965 4.44318 16.5671 4.1879 17.1761 3.83207C16.9448 4.55921 16.4515 5.17805 15.8041 5.56482C16.4361 5.48747 17.0373 5.31729 17.6 5.06975C17.1761 5.69633 16.6442 6.25328 16.043 6.6942Z" fill="#428FBC"/>
</svg>
